# xmcd
#
# Track frame offsets: 
#        150
#        15925
#        31230
#        46043
#        61195
#        78026
#        92967
#        108243
#        124795
#        140477
#        154608
#        168615
#        184007
#        199833
#        215601
#        226657
#
# Disc length: 3238 seconds
#
# Revision: 0
# Processed by: cddbd v1.5.2PL0 Copyright (c) Steve Scherf et al.
# Submitted via: ExactAudioCopy v1.3
#
DISCID=c20ca410
DTITLE=Pat Fritz - The Way to Go
DYEAR=1900
DGENRE=Blues
TTITLE0=Those Are the Words
TTITLE1=Waiting for Tomorrow
TTITLE2=The Way to Go
TTITLE3=Make This Right
TTITLE4=Breath, Receive, Believe
TTITLE5=Birmingham
TTITLE6=One Good Heart
TTITLE7=River
TTITLE8=Have I Told You Lately That I Love You
TTITLE9=Somewhere Over the Rainbow
TTITLE10=Tom Trauberts Blues
TTITLE11=Storm of Love
TTITLE12=Every Breath You Take
TTITLE13=Wandering Spirit
TTITLE14=Dein Ist Mein Ganzes Herz
TTITLE15=Falling Stars
EXTD=
EXTT0=
EXTT1=
EXTT2=
EXTT3=
EXTT4=
EXTT5=
EXTT6=
EXTT7=
EXTT8=
EXTT9=
EXTT10=
EXTT11=
EXTT12=
EXTT13=
EXTT14=
EXTT15=
PLAYORDER=
